<?xml version="1.0" standalone="no"?>
<!DOCTYPE svg PUBLIC "-//W3C//DTD SVG 20010904//EN"
 "http://www.w3.org/TR/2001/REC-SVG-20010904/DTD/svg10.dtd">
<svg version="1.0" xmlns="http://www.w3.org/2000/svg"
 width="1024.000000pt" height="1024.000000pt" viewBox="0 0 1024.000000 1024.000000"
 preserveAspectRatio="xMidYMid meet">
<metadata>
Created by potrace 1.11, written by Peter Selinger 2001-2013
</metadata>
<g transform="translate(0.000000,1024.000000) scale(0.100000,-0.100000)"
fill="#000000" stroke="none">
<path d="M4580 9164 c-378 -53 -977 -275 -1202 -444 -158 -119 -238 -313 -210
-510 10 -68 25 -113 78 -237 3 -7 -10 -14 -35 -18 -87 -15 -165 -89 -222 -211
-83 -181 -137 -621 -110 -904 28 -296 84 -477 231 -749 39 -70 70 -131 70
-135 0 -3 -8 -6 -18 -6 -25 0 -70 -50 -82 -91 -18 -59 -40 -443 -42 -729 -3
-311 3 -348 70 -422 58 -64 103 -82 202 -83 47 0 96 4 110 8 l25 8 17 -133
c28 -220 66 -404 94 -461 57 -113 252 -355 398 -494 58 -56 86 -90 86 -105 0
-13 7 -158 15 -323 8 -165 15 -334 15 -376 l0 -76 -92 -38 c-51 -21 -284 -121
-518 -223 -234 -102 -594 -251 -800 -332 -474 -187 -593 -237 -755 -315 -466
-226 -735 -487 -908 -880 -77 -176 -125 -331 -208 -660 -27 -110 -52 -206 -54
-213 -4 -9 905 -12 4521 -12 l4526 0 -6 68 c-16 153 -60 407 -96 547 -94 367
-233 618 -480 865 -213 213 -464 382 -865 580 -359 178 -1207 557 -1630 729
-110 45 -211 87 -225 94 l-25 13 0 224 c0 124 6 301 14 393 l14 168 79 105
c141 187 220 319 259 433 23 65 43 229 59 466 7 94 13 171 15 173 2 2 18 -4
36 -14 18 -9 61 -19 95 -22 55 -4 68 -1 108 22 35 21 51 40 76 90 58 117 57
315 -5 770 -40 300 -59 366 -109 397 -17 10 -41 19 -53 19 -15 0 -23 6 -23 16
0 10 21 87 46 173 125 424 147 710 72 956 -19 61 -22 96 -23 280 -2 421 -64
580 -293 752 -88 67 -212 133 -319 172 -73 27 -74 28 -102 87 -92 192 -269
308 -671 439 -237 77 -427 128 -590 157 -153 27 -416 33 -560 12z m1724 -1547
c33 -35 76 -89 94 -120 112 -187 199 -541 173 -698 l-11 -69 39 -50 c84 -107
124 -226 186 -560 55 -298 60 -352 47 -498 -7 -70 -12 -196 -12 -281 l0 -155
-44 -55 c-94 -121 -313 -467 -470 -744 -21 -36 -31 -46 -40 -38 -31 26 -66
113 -84 213 -23 119 -45 168 -94 214 -65 62 -140 95 -348 157 -251 75 -389 83
-575 32 -109 -30 -156 -30 -310 -1 -154 29 -321 17 -423 -31 -84 -39 -142
-107 -217 -253 -37 -71 -84 -149 -105 -172 l-37 -43 -155 117 c-227 171 -312
270 -409 473 -112 234 -115 342 -24 989 53 372 65 428 108 516 31 63 32 68 26
150 -8 99 5 278 26 381 41 195 156 368 284 428 56 26 58 26 316 27 209 1 290
5 410 22 246 36 370 39 498 12 l109 -22 51 21 c113 44 131 46 401 43 267 -2
392 9 469 42 17 8 38 15 46 15 7 1 41 -27 75 -62z m761 -1549 c36 -16 70 -88
89 -184 32 -174 69 -502 70 -634 2 -311 -98 -441 -279 -361 l-48 21 8 83 c8
100 33 265 40 278 10 15 88 10 131 -10 23 -10 49 -29 57 -42 21 -29 31 -20 16
14 -7 15 -34 38 -65 54 l-54 28 0 60 c0 41 -8 79 -25 120 -24 58 -25 66 -19
205 6 133 8 148 31 183 14 20 29 37 33 37 3 0 17 -22 30 -49 24 -53 30 -115
18 -191 -7 -41 -7 -43 7 -26 35 46 31 156 -11 245 -13 30 -22 61 -20 68 10 26
-13 12 -49 -29 l-37 -43 5 82 c3 45 8 86 12 92 8 14 28 14 60 -1z m-3851 -188
c20 -51 20 -74 0 -91 -29 -24 -55 -90 -66 -169 -9 -57 -9 -83 -1 -91 7 -7 12
7 17 51 8 68 26 125 52 165 17 27 18 27 26 6 4 -12 10 -74 14 -139 6 -115 6
-118 -25 -199 -52 -133 -53 -195 -6 -251 l24 -29 -30 -22 c-36 -27 -49 -56
-58 -133 -9 -68 1 -76 19 -15 17 57 45 94 88 116 l36 18 51 -52 51 -53 12
-114 c17 -165 18 -162 -23 -181 -59 -28 -116 -37 -162 -25 -52 13 -117 67
-145 122 -30 57 -34 193 -14 453 9 115 20 290 26 389 9 193 20 239 61 268 32
22 35 21 53 -24z m3785 -480 c1 -44 -10 -70 -31 -70 -16 0 -19 5 -14 28 3 15
8 54 12 87 l8 60 12 -40 c7 -22 13 -51 13 -65z m-3706 -237 c9 -49 -35 -19
-68 46 -20 40 -15 92 17 161 l21 45 13 -115 c7 -63 15 -125 17 -137z m1608
-545 c165 -21 187 -21 365 -10 335 22 531 12 606 -30 21 -12 38 -24 38 -28 0
-11 -144 -62 -200 -71 -30 -5 -244 -12 -475 -15 -365 -6 -445 -5 -608 11 -103
10 -190 15 -194 11 -12 -11 12 -27 53 -33 21 -3 75 -23 119 -43 119 -57 286
-81 555 -81 253 0 356 21 679 140 47 17 88 36 92 42 16 27 60 -107 74 -222 20
-176 -102 -408 -266 -506 -114 -68 -183 -74 -664 -58 l-281 10 -67 33 c-52 26
-79 48 -113 90 -85 109 -176 326 -214 513 -20 99 -20 100 -1 143 10 24 35 56
56 71 77 60 177 67 446 33z m798 -178 c-28 -16 -182 -57 -284 -76 -131 -23
-443 -24 -596 -1 -104 16 -213 49 -225 68 -4 7 82 8 248 4 139 -3 354 -2 478
3 322 13 398 13 379 2z m751 -1592 c3 -2 14 -8 25 -14 34 -18 83 -101 96 -162
16 -75 1 -182 -36 -259 -88 -181 -559 -495 -942 -627 -205 -71 -278 -81 -558
-80 -229 0 -261 3 -388 27 -165 32 -314 81 -393 128 -253 149 -348 464 -215
714 l26 50 5 -90 c7 -120 23 529 18 738 -1 86 -1 157 2 157 17 0 128 -85 200
-154 220 -210 436 -351 646 -422 499 -168 1012 65 1372 621 36 55 79 112 96
127 l31 27 5 -389 c3 -214 7 -390 10 -392z"/>
<path d="M5729 6580 c-185 -18 -302 -97 -324 -221 -10 -54 8 -63 121 -61 114
2 236 21 405 62 200 49 322 38 496 -45 53 -25 98 -44 99 -42 7 7 -83 175 -115
216 -18 23 -46 48 -62 57 -73 37 -397 55 -620 34z"/>
<path d="M3817 6506 c-89 -24 -141 -83 -184 -209 -24 -69 -44 -237 -29 -237 4
0 34 26 65 58 72 70 147 116 226 137 96 25 433 22 604 -5 149 -23 188 -18 211
25 26 49 -22 144 -86 171 -54 23 -215 43 -475 59 -284 17 -270 17 -332 1z"/>
<path d="M5705 6252 c-33 -16 -84 -48 -112 -71 -54 -42 -138 -140 -129 -149 3
-3 35 23 71 57 61 57 156 121 180 121 6 0 9 -17 7 -41 -3 -25 2 -56 13 -80
l18 -39 118 0 c136 0 144 5 155 92 6 43 9 48 28 42 43 -12 128 -76 158 -119
18 -25 36 -45 41 -45 15 0 -2 52 -31 95 -64 93 -202 154 -362 162 -89 4 -99 3
-155 -25z m235 -51 c15 -29 13 -39 -15 -57 -24 -16 -27 -16 -45 1 -23 20 -26
45 -8 63 18 18 56 14 68 -7z m40 -76 c0 -8 -7 -15 -15 -15 -8 0 -15 7 -15 15
0 8 7 15 15 15 8 0 15 -7 15 -15z"/>
<path d="M4235 6213 c-91 -11 -177 -36 -213 -63 -39 -28 -122 -151 -122 -180
0 -8 28 16 61 53 56 62 101 94 154 111 18 5 20 0 23 -41 1 -26 10 -61 20 -77
16 -28 23 -31 78 -34 32 -2 83 0 112 3 71 9 95 43 89 128 -3 54 -2 57 17 51
82 -26 140 -80 158 -150 7 -24 16 -44 20 -44 14 0 8 54 -11 95 -50 111 -206
171 -386 148z m106 -53 c37 -20 15 -87 -27 -78 -9 2 -23 12 -30 23 -12 18 -11
24 2 43 17 25 27 27 55 12z m55 -81 c10 -17 -13 -36 -27 -22 -12 12 -4 33 11
33 5 0 12 -5 16 -11z"/>
<path d="M4624 5343 c-35 -58 -56 -139 -48 -178 15 -70 65 -136 111 -148 32
-7 38 8 9 21 -13 6 -35 26 -49 44 -56 76 -59 160 -8 254 36 66 22 72 -15 7z"/>
<path d="M5560 5352 c0 -7 11 -35 25 -62 40 -80 29 -144 -35 -207 -47 -46 -32
-51 19 -7 52 45 75 87 68 128 -6 33 -76 170 -77 148z"/>
<path d="M5276 5160 c-16 -5 -52 -31 -80 -58 -62 -60 -84 -72 -132 -72 -32 0
-44 7 -83 49 -25 27 -56 54 -68 60 -33 17 -98 14 -114 -5 -11 -14 -10 -19 11
-36 20 -16 36 -19 82 -16 56 4 58 3 88 -33 56 -70 125 -64 210 17 l57 54 51
-22 c42 -18 56 -20 77 -10 37 17 33 50 -10 68 -38 16 -47 16 -89 4z"/>
<path d="M4656 4094 c-9 -25 20 -70 99 -152 127 -133 252 -192 409 -192 151 0
261 43 356 139 58 58 106 141 96 166 -7 20 -36 19 -95 -4 -240 -95 -536 -86
-768 25 -82 39 -89 40 -97 18z"/>
</g>
</svg>
